<svg width="24" height="21" viewBox="0 0 24 21" fill="none" xmlns="http://www.w3.org/2000/svg">
<g clip-path="url(#clip0_376_12204)">
<path d="M23.9183 20.9616C15.4603 13.6384 8.54142 13.6384 0.0820312 20.9616C8.54142 13.6384 12.0002 7.64532 12.0002 0.320312C12.0002 7.64532 15.4603 13.6384 23.9183 20.9616Z" fill="#121212"/>
<path d="M23.8363 21C21.6925 19.1197 19.7071 17.761 17.7622 16.8483C15.7902 15.9203 13.9053 15.4693 12 15.4693C10.0947 15.4693 8.20938 15.9198 6.23778 16.8483C4.29464 17.7628 2.30747 19.1215 0.163707 21.0018L0 20.8085C8.43448 13.4115 11.875 7.38307 11.875 0H12.125C12.125 7.38307 15.5651 13.4115 24 20.8085L23.8363 21ZM12 15.2148C13.9427 15.2148 15.8618 15.6734 17.8677 16.6172C18.9718 17.1371 20.0919 17.7979 21.2406 18.6138C20.1907 17.597 19.248 16.6104 18.3935 15.6356C16.8601 13.885 15.6456 12.2083 14.6803 10.5153C13.7149 8.82238 13.0169 7.14025 12.5534 5.38515C12.2939 4.40297 12.1093 3.40203 12.0013 2.3912C11.8934 3.40203 11.7088 4.40297 11.4493 5.38515C10.9853 7.14205 10.2895 8.81832 9.32197 10.5153C8.3544 12.2123 7.14217 13.885 5.60697 15.6356C4.75285 16.6104 3.81064 17.597 2.75989 18.6138C3.91073 17.7979 5.02866 17.1371 6.13279 16.6172C8.1382 15.6734 10.0573 15.2148 12 15.2148Z" fill="#121212"/>
</g>
<defs>
<clipPath id="clip0_376_12204">
<rect width="24" height="21" fill="white"/>
</clipPath>
</defs>
</svg>
