<svg  viewBox="0 0 15 16" fill="none" xmlns="http://www.w3.org/2000/svg">
<path d="M4.57809 3.44246C4.83708 3.70145 5.23552 3.70145 5.4945 3.44246L6.57028 2.36668C6.82925 2.10771 7.22769 2.10771 7.48668 2.36668L8.60228 3.48231C8.86127 3.74129 8.86127 4.13973 8.6023 4.3987L-0.900391 13.9014L1.13163 15.9334L10.6343 6.43072C10.8933 6.17175 11.2917 6.17175 11.5507 6.43072L12.6663 7.54634C12.9253 7.80533 12.9253 8.20377 12.6663 8.46274L11.5906 9.53852C11.3316 9.79751 11.3316 10.1959 11.5906 10.4549L12.7062 11.5705C12.9652 11.8295 12.9652 12.228 12.7062 12.487L11.6304 13.5627C11.3714 13.8217 11.3714 14.2201 11.6304 14.4791L12.746 15.5947C13.005 15.8537 13.4034 15.8537 13.6624 15.5947L14.7382 14.519C14.9972 14.26 14.9972 13.8615 14.7382 13.6026L13.6226 12.487C13.3636 12.228 13.3636 11.8295 13.6226 11.5705L14.6984 10.4948C14.9573 10.2358 14.9573 9.83735 14.6983 9.57836L13.5827 8.46274C13.3237 8.20377 13.3237 7.80533 13.5827 7.54634L14.6585 6.47057C14.9175 6.21158 14.9175 5.81316 14.6585 5.55417L13.5429 4.43855C13.2839 4.17956 13.2839 3.78114 13.5429 3.52215L14.6187 2.44637C14.8777 2.18739 14.8777 1.78896 14.6187 1.52997L13.503 0.414354C13.2441 0.155372 12.8456 0.155372 12.5866 0.414354L11.5109 1.49013C11.2519 1.74911 10.8534 1.74911 10.5945 1.49013L9.47885 0.374512C9.21986 0.115528 8.82143 0.115527 8.56246 0.37451L7.48668 1.45028C7.22769 1.70927 6.82925 1.70927 6.57026 1.45029L5.45466 0.334669C5.19567 0.075685 4.79723 0.0756852 4.53824 0.334669L3.46248 1.41044C3.2035 1.66943 2.80506 1.66943 2.54607 1.41044L1.43046 0.294823C1.17148 0.0358405 0.77304 0.0358402 0.514056 0.294823L-0.561719 1.3706C-0.820702 1.62958 -0.820701 2.02802 -0.561719 2.28699L0.5539 3.40261C0.812884 3.6616 1.21132 3.6616 1.47031 3.40261L2.54607 2.32684C2.80506 2.06787 3.2035 2.06787 3.46248 2.32684L4.57809 3.44246ZM10.5945 2.40653C10.8534 2.14754 11.2519 2.14754 11.5109 2.40653L12.6265 3.52215C12.8855 3.78114 12.8855 4.17956 12.6265 4.43855L11.5507 5.51433C11.2917 5.77331 10.8933 5.77331 10.6343 5.51433L9.5187 4.3987C9.25971 4.13973 9.25971 3.74129 9.5187 3.48231L10.5945 2.40653Z" />
</svg>
