<svg width="28" height="36" viewBox="0 0 28 36" fill="none" xmlns="http://www.w3.org/2000/svg">
<path fill-rule="evenodd" clip-rule="evenodd" d="M27.7006 32.0961H17.5208V27.3087H27.7006V32.0961ZM18.7227 2.58382C18.0577 2.58382 17.5193 3.1222 17.5193 3.78719V4.94836H27.7006V3.78574C27.7006 3.12224 27.1622 2.58528 26.4987 2.58382H18.7227ZM17.5206 11.8092V26.2712H27.7004V11.8092H17.5206ZM17.5206 33.1335V34.7966C17.5206 35.4616 18.059 36 18.7226 36H26.4985C27.1635 36 27.7019 35.4616 27.7019 34.7966V33.132H17.5207L17.5206 33.1335ZM27.7004 5.9844H17.5206V10.7718H27.7004V5.9844ZM8.29525 31.9724H16.4829V28.7814H8.29525V31.9724ZM8.29525 12.0305H16.4829V10.0909H8.29525V12.0305ZM8.29525 7.21701H16.4829V4.026H8.29525V7.21701ZM8.29525 9.05479H16.4829V8.2545H8.29525V9.05479ZM8.29525 22.9305H16.4829V13.0678H8.29525V22.9305ZM8.29525 35.1023C8.29525 35.5971 8.69685 35.9972 9.19157 35.9987H15.5867C16.0814 35.9972 16.483 35.5971 16.483 35.1023V33.0085H8.2954L8.29525 35.1023ZM8.29525 27.744H16.4829V26.9437H8.29525V27.744ZM15.5896 0L9.18702 0.001455C8.69376 0.00436499 8.29652 0.404502 8.29507 0.896317V2.99019H16.4827V0.896317C16.4812 0.401597 16.0811 0.00145498 15.5864 2.22029e-06L15.5896 0ZM8.29525 25.9064H16.4829V23.9668H8.29525V25.9064ZM0.298 12.7102H7.25634V10.0561H0.298V12.7102ZM6.54896 4.94273H1.00501C0.615037 4.94273 0.297852 5.25994 0.297852 5.64989V9.01843L7.25619 9.01988V5.64989C7.25474 5.25992 6.93891 4.94419 6.54896 4.94273ZM0.298 13.7476H7.25634V27.1956H0.298V13.7476ZM4.27782 24.9286C4.28509 25.2094 4.51499 25.4335 4.79727 25.4335C5.0781 25.4335 5.30801 25.2094 5.31527 24.9286V16.0131C5.308 15.7323 5.07809 15.5082 4.79727 15.5082C4.51498 15.5082 4.28508 15.7323 4.27782 16.0131V24.9286ZM2.23922 22.1247C2.23922 22.4113 2.47058 22.6427 2.75722 22.6427C3.04388 22.6427 3.27522 22.4113 3.27522 22.1247V18.8173C3.27522 18.5306 3.04387 18.2993 2.75722 18.2993C2.47057 18.2993 2.23922 18.5306 2.23922 18.8173V22.1247ZM0.299602 35.2919V35.2904C0.299602 35.6818 0.615358 35.999 1.00676 35.999H6.54922C6.94065 35.999 7.25638 35.6818 7.25638 35.2904V31.9219H0.298038L0.299602 35.2919ZM0.299602 30.8859L7.25646 30.8845V28.2318H0.298112L0.299602 30.8859Z" fill="black"/>
</svg>
