<svg width="17" height="16" viewBox="0 0 17 16" fill="none" xmlns="http://www.w3.org/2000/svg">
<path d="M15.3451 1.62505H14.6186C14.6001 0.722192 13.8629 5.3284e-05 12.9601 5.3284e-05C12.0565 5.3284e-05 11.3193 0.722192 11.3015 1.62505H11.7586C11.7493 1.95075 11.8715 2.26576 12.0979 2.49932C12.3244 2.73289 12.6358 2.86504 12.9615 2.86504C13.0851 2.86789 13.1844 2.96932 13.1844 3.09361C13.1844 3.21789 13.0851 3.31933 12.9615 3.32218C12.5151 3.32075 12.0879 3.14004 11.7758 2.82146C11.4644 2.50218 11.2929 2.07147 11.3015 1.62505L5.69857 1.62503C5.68143 0.760025 5.00143 0.0535938 4.13714 0.00288758C3.27285 -0.0478259 2.51571 0.575028 2.39786 1.43217C2.38715 1.49645 2.38143 1.56074 2.38143 1.62503H2.83929C2.82929 1.95002 2.95143 2.26503 3.17715 2.49859C3.40287 2.73215 3.71358 2.8643 4.03857 2.86502C4.16357 2.86645 4.26429 2.96859 4.26429 3.09359C4.26429 3.21859 4.16358 3.32002 4.03857 3.32216C3.59286 3.32002 3.16644 3.1393 2.855 2.82073C2.54357 2.50144 2.37286 2.07074 2.38143 1.62503L1.655 1.62501C1.01714 1.62573 0.500713 2.14286 0.5 2.78001V3.89858H16.5V2.78001C16.4993 2.14286 15.9829 1.62576 15.3451 1.62505ZM2.85722 1.62505C2.8565 1.31291 2.98079 1.0129 3.20292 0.793615C3.42506 0.57362 3.7265 0.452185 4.03864 0.457195C4.69006 0.455767 5.22364 0.974333 5.24149 1.62505H2.85722ZM11.7772 1.62505C11.7757 1.3122 11.9007 1.01218 12.1236 0.792189C12.3464 0.572907 12.6486 0.452185 12.9614 0.457195C13.6114 0.457195 14.1436 0.975046 14.1607 1.62505H11.7772Z" fill="#121212" fill-opacity="0.6"/>
<path d="M15.5378 13.5107C15.5378 13.9736 15.1635 14.3493 14.6999 14.3507H2.30005C1.83647 14.3493 1.4622 13.9736 1.4622 13.5107V4.35583H0.500063V14.7745V14.7738C0.500777 15.4116 1.0172 15.928 1.65506 15.9287H15.345C15.9829 15.928 16.4993 15.4116 16.5 14.7738V4.35585H15.5379L15.5378 13.5107Z" fill="#121212" fill-opacity="0.6"/>
<path d="M5.19925 4.35583H8.27289V6.22719H5.19925V4.35583Z" fill="#121212" fill-opacity="0.6"/>
<path d="M1.91934 4.35583H4.74229V6.22719H1.91934V4.35583Z" fill="#121212" fill-opacity="0.6"/>
<path d="M1.91934 6.6836H4.74229V8.8958H1.91934V6.6836Z" fill="#121212" fill-opacity="0.6"/>
<path d="M1.91934 9.35294H4.74229V11.5651H1.91934V9.35294Z" fill="#121212" fill-opacity="0.6"/>
<path d="M1.91934 13.5107C1.91863 13.6115 1.95863 13.7093 2.03006 13.7807C2.10148 13.8529 2.19863 13.8936 2.30006 13.8936H4.74212V12.0222H1.91917L1.91934 13.5107Z" fill="#121212" fill-opacity="0.6"/>
<path d="M8.7271 9.35294H11.8007V11.5651H8.7271V9.35294Z" fill="#121212" fill-opacity="0.6"/>
<path d="M8.7271 12.0221H11.8007V13.8935H8.7271V12.0221Z" fill="#121212" fill-opacity="0.6"/>
<path d="M12.2579 13.8936H14.6999C14.8014 13.8936 14.8985 13.8529 14.9699 13.7808C15.0414 13.7094 15.0814 13.6115 15.0807 13.5108V12.0222H12.2577L12.2579 13.8936Z" fill="#121212" fill-opacity="0.6"/>
<path d="M12.2579 9.35294H15.0808V11.5651H12.2579V9.35294Z" fill="#121212" fill-opacity="0.6"/>
<path d="M12.2579 6.6836H15.0808V8.8958H12.2579V6.6836Z" fill="#121212" fill-opacity="0.6"/>
<path d="M12.2579 4.35583H15.0808V6.22719H12.2579V4.35583Z" fill="#121212" fill-opacity="0.6"/>
<path d="M8.7271 6.6836H11.8007V8.8958H8.7271V6.6836Z" fill="#121212" fill-opacity="0.6"/>
<path d="M5.19925 6.6836H8.27289V8.8958H5.19925V6.6836Z" fill="#121212" fill-opacity="0.6"/>
<path d="M5.19925 9.35294H8.27289V11.5651H5.19925V9.35294Z" fill="#121212" fill-opacity="0.6"/>
<path d="M5.19925 12.0221H8.27289V13.8935H5.19925V12.0221Z" fill="#121212" fill-opacity="0.6"/>
<path d="M8.7271 4.35583H11.8007V6.22719H8.7271V4.35583Z" fill="#121212" fill-opacity="0.6"/>
</svg>
