<svg  viewBox="0 0 21 25" fill="currentColor" xmlns="http://www.w3.org/2000/svg">
<path d="M6.30595 24.856H17.7228C19.2485 24.8549 20.486 23.6337 20.4893 22.1268V6.6013C20.4838 5.09545 19.2474 3.87644 17.7228 3.87427H17.4291C17.4148 2.20763 16.0464 0.86152 14.358 0.855957H3.56938C1.86988 0.857043 0.491511 2.21837 0.489258 3.89819V18.8045C0.494758 20.4701 1.85436 21.8217 3.54066 21.8379V22.128V22.1269C3.54396 23.6338 4.78025 24.8549 6.30595 24.856ZM19.0218 6.60338V22.1266C19.0218 22.4678 18.8854 22.7937 18.6412 23.0349C18.3981 23.275 18.067 23.4108 17.7227 23.4108H6.30586C5.96155 23.4108 5.63158 23.275 5.38738 23.0349C5.14318 22.7937 5.00677 22.4678 5.00677 22.1266V21.8376H14.3578C16.0584 21.8354 17.4368 20.4741 17.4379 18.7954V5.3231H17.7316C18.4433 5.32853 19.0175 5.89784 19.0219 6.6008L19.0218 6.60338ZM1.95638 18.8043V3.89797C1.95638 3.01792 2.67798 2.30412 3.56898 2.30412H14.3576C15.2486 2.30412 15.9713 3.01792 15.9713 3.89797V18.8043C15.9713 19.6844 15.2486 20.3971 14.3576 20.3971H3.56898C2.67908 20.396 1.95748 19.6833 1.95638 18.8043Z" />
</svg>
