<svg width="32" height="38" viewBox="0 0 32 38" fill="none" xmlns="http://www.w3.org/2000/svg">
<path d="M18.8147 9.61762H25.7764C26.1017 9.61762 26.3644 9.35491 26.3644 9.02965L18.815 1.48627C18.4898 1.48627 18.227 1.74897 18.227 2.07424V9.03597C18.2333 9.35497 18.4957 9.61762 18.8147 9.61762Z" fill="#121212"/>
<path d="M26.0266 17.4364C22.7429 17.4364 20.0657 20.1135 20.0657 23.4034C20.0657 26.6871 22.7427 29.3643 26.0266 29.3643C29.3229 29.3643 32 26.6873 32 23.4034C32 20.1133 29.3167 17.4364 26.0266 17.4364ZM28.9164 23.8349C28.7412 24.0163 28.466 24.0163 28.2909 23.8349L26.4707 22.021V26.3367C26.4707 26.5807 26.2706 26.7808 26.0204 26.7808C25.7764 26.7808 25.5825 26.5807 25.5825 26.3367V22.0711L23.7561 23.8975C23.6686 23.9788 23.556 24.0226 23.4434 24.0226C23.3308 24.0226 23.2182 23.9788 23.1306 23.8975C22.9555 23.7161 22.9555 23.4409 23.1306 23.2658L25.7389 20.6575C25.8265 20.5699 25.939 20.5262 26.0516 20.5262C26.1705 20.5262 26.283 20.5699 26.3706 20.6575L28.9163 23.2095C29.0915 23.3846 29.0915 23.6598 28.9164 23.8349Z" fill="#121212"/>
<path d="M26.0955 30.6153C23.0307 30.6153 20.4099 28.6826 19.4028 25.9681C19.0838 26.0244 18.7398 26.0369 18.5709 26.0369L6.48041 25.9431C6.1364 25.9431 5.85493 25.6617 5.85493 25.3176C5.85493 24.9674 6.1364 24.6922 6.48041 24.6922H19.0524C18.9836 24.2981 18.9461 23.8853 18.9461 23.4725C18.9461 22.0214 19.384 20.6641 20.1283 19.5319H6.4802C6.13619 19.5319 5.85472 19.2567 5.85472 18.9065C5.85472 18.5624 6.13619 18.281 6.4802 18.281H21.1851C22.4673 17.0676 24.1936 16.3232 26.0952 16.3232C26.4392 16.3232 26.7207 16.0418 26.7207 15.6978V10.7376H17.7763C17.401 10.7376 17.0945 10.4311 17.0945 10.062V1.24889C17.0945 1.11754 17.0695 0.992442 17.1445 0.886108H0.625479C0.281464 0.886108 0 1.16132 0 1.51159V36.4884C0 36.8386 0.281464 37.1139 0.625479 37.1139H26.0886C26.4326 37.1139 26.7141 36.8386 26.7141 36.4884V31.2408C26.7203 30.8967 26.4326 30.6153 26.0948 30.6153L26.0955 30.6153ZM6.47405 12.0575H20.241C20.585 12.0575 20.8665 12.3389 20.8665 12.683C20.8665 13.027 20.585 13.3084 20.241 13.3084H6.47405C6.13003 13.3084 5.84857 13.027 5.84857 12.683C5.84857 12.3389 6.13003 12.0575 6.47405 12.0575Z" fill="#121212"/>
</svg>
