<svg width="40" height="40" viewBox="0 0 40 40" fill="none" xmlns="http://www.w3.org/2000/svg">
<path d="M23.7071 13.4644C23.0772 14.0944 22 13.6482 22 12.7573V0H18V15C18 16.6568 16.6569 18 15 18H0V22H12.7573C13.6483 22 14.0944 23.0771 13.4645 23.7071L4.58577 32.5858L7.41423 35.4142L16.2929 26.5355C16.921 25.9075 17.9936 26.349 18 27.2348V40H22L22 25C22 23.3431 23.3431 22 25 22H40V18H27.2348C26.3518 17.9936 25.91 16.9273 26.53 16.2985L26.5355 16.2929L35.4142 7.4142L32.5858 4.5858L23.7071 13.4644Z" fill="#F1F1F1"/>
</svg>
