<svg width="14" height="16" viewBox="0 0 14 16" fill="none" xmlns="http://www.w3.org/2000/svg">
<path d="M5.88371 14.1C5.99666 14.3054 6.16271 14.4767 6.36451 14.5961C6.56631 14.7154 6.79645 14.7784 7.0309 14.7784C7.26535 14.7784 7.49549 14.7154 7.69729 14.5961C7.89909 14.4767 8.06514 14.3054 8.17809 14.1M2.98198 5.3273C2.98198 4.25346 3.40856 3.2236 4.16788 2.46428C4.9272 1.70496 5.95706 1.27838 7.0309 1.27838C8.10474 1.27838 9.1346 1.70496 9.89392 2.46428C10.6532 3.2236 11.0798 4.25346 11.0798 5.3273C11.0798 10.051 13.1043 11.4007 13.1043 11.4007H0.95752C0.95752 11.4007 2.98198 10.051 2.98198 5.3273Z" stroke="#F1F1F1" stroke-opacity="0.6" stroke-width="1.79952" stroke-linecap="round" stroke-linejoin="round"/>
</svg>
