<svg width="36" height="36" viewBox="0 0 36 36" fill="none" xmlns="http://www.w3.org/2000/svg">
<path fill-rule="evenodd" clip-rule="evenodd" d="M5.61457 1.6282C10.1336 3.13651 14.3609 5.73876 17.0384 9.72921C15.7861 4.56789 12.4439 1.46526 7.20416 0.0340684C6.75418 -0.0887862 6.2894 0.128799 6.09698 0.555088L5.61593 1.62672L5.61457 1.6282ZM30.3822 1.6282L29.9011 0.556566C29.7102 0.130277 29.2454 -0.0873008 28.7939 0.0355462C23.5542 1.46685 20.2121 4.56937 18.9597 9.73069C21.6374 5.74024 25.8649 3.13817 30.3835 1.62968L30.3822 1.6282ZM21.0955 12.2293L35.1498 4.87292C35.5376 4.67014 35.9979 4.94693 35.9979 5.38655V26.7942C35.9979 27.3064 35.7374 27.7297 35.283 27.9576L21.0957 35.0859L21.0955 12.2293ZM15.9149 31.4567C17.3107 32.0813 18.6857 32.0561 20.0845 31.4522V29.6553C18.7006 30.1586 17.3018 30.1778 15.9149 29.6627V31.4582V31.4567ZM15.9149 35.5404C17.3107 36.1664 18.6857 36.1413 20.0845 35.5359V32.5385C18.7006 33.0418 17.3018 33.061 15.9149 32.5459V35.5418V35.5404ZM33.603 4.54402L20.468 11.4196C19.9825 11.6475 19.312 11.8547 18.8309 11.9421C20.0077 9.61379 21.7114 7.70269 23.7361 6.16653C26.3042 4.21716 29.3934 2.86429 32.5859 2.0249C32.9248 1.93905 33.2312 2.11074 33.3112 2.42011L33.6013 4.54565L33.603 4.54402ZM12.2635 6.16479C14.2899 7.70416 15.9951 9.61803 17.1717 11.9494C16.6907 11.8665 16.0187 11.6578 15.5362 11.421L2.25147 4.46702L2.67333 2.48949C2.74733 2.1757 3.03449 1.93293 3.39268 2.01732C6.5928 2.85656 9.68774 4.20947 12.2618 6.16464L12.2635 6.16479ZM15.9166 15.6439C17.3124 16.27 18.6875 16.2449 20.0863 15.6395V12.6421C18.7009 13.1469 17.3035 13.1646 15.9166 12.6495V15.6454V15.6439ZM20.0863 19.6094C18.7023 20.1126 17.3035 20.1319 15.9166 19.6168V28.5704C17.3124 29.1965 18.6875 29.1713 20.0863 28.5659V19.6094ZM15.9166 18.5274C17.3124 19.152 18.6875 19.1283 20.0863 18.5229V16.726C18.7023 17.2292 17.3035 17.2485 15.9166 16.7334V18.5288V18.5274ZM24.3181 29.2437L33.2304 24.7663C33.479 24.642 33.5797 24.3386 33.4554 24.0899C33.331 23.8412 33.0276 23.7406 32.7789 23.8649L23.8666 28.3423C23.618 28.4666 23.5173 28.77 23.6416 29.0187C23.766 29.2674 24.0694 29.368 24.3181 29.2437ZM23.8637 15.2281C23.6831 15.5256 23.5869 15.8705 23.5869 16.2405V23.7182C23.5869 24.8979 24.8287 25.6705 25.8886 25.1377L32.4326 21.8502C33.1045 21.5127 33.5101 20.857 33.5101 20.108V12.4924C33.5101 11.298 32.2446 10.5297 31.1833 11.0848L24.6336 14.5129C24.3036 14.6846 24.043 14.9318 23.864 15.2278L23.8637 15.2281ZM25.1011 15.4057C24.7814 15.573 24.5993 15.8764 24.5993 16.239V23.7167C24.5993 24.1622 25.0552 24.4272 25.4386 24.2348L31.9826 20.9473C32.3127 20.7815 32.4977 20.4781 32.4977 20.1065V12.4909C32.4977 12.0513 32.0374 11.7745 31.6495 11.9773L25.0999 15.4054L25.1011 15.4057ZM12.1347 28.341C12.3834 28.4653 12.4855 28.7688 12.3597 29.0175C12.2354 29.2661 11.9319 29.3668 11.6832 29.2425L2.77096 24.7651C2.52229 24.6408 2.42163 24.3373 2.54597 24.0886C2.67031 23.8399 2.97374 23.7393 3.22243 23.8636L12.1347 28.341ZM11.2718 15.7494C11.1859 15.6073 11.0601 15.4889 10.9003 15.406L4.35057 11.9779C3.96278 11.7751 3.50242 12.0519 3.50242 12.4915V20.1071C3.50242 20.4787 3.68893 20.7821 4.01753 20.9479L10.5615 24.2354C10.9449 24.4278 11.4008 24.1628 11.4008 23.7173V16.2396C11.4008 16.0575 11.3549 15.8903 11.269 15.7497L11.2718 15.7494ZM11.3665 14.512L4.81682 11.0839C3.75553 10.5288 2.49 11.2955 2.49 12.4915V20.1071C2.49 20.8546 2.89557 21.5118 3.56759 21.8493L10.1116 25.1368C11.1714 25.6696 12.4133 24.8984 12.4133 23.7173V16.2396C12.4133 15.4995 12.0225 14.8571 11.3653 14.5122L11.3665 14.512ZM0.849871 4.87177L14.9042 12.2282V35.0849L0.716869 27.9566C0.262463 27.7286 0.00195312 27.3053 0.00195312 26.7931V5.38547C0.00195312 4.94585 0.462042 4.66901 0.849871 4.87177Z" fill="black"/>
</svg>
