<svg width="12" height="12" viewBox="0 0 12 12" fill="none" xmlns="http://www.w3.org/2000/svg">
<path d="M11.482 5.48201H6.51799V0.517986C6.51799 0.231885 6.2861 0 6 0C5.7139 0 5.48201 0.231885 5.48201 0.517986V5.48201H0.517986C0.231885 5.48201 0 5.7139 0 6C0 6.2861 0.231885 6.51799 0.517986 6.51799H5.48201V11.482C5.48201 11.7681 5.7139 12 6 12C6.2861 12 6.51799 11.7681 6.51799 11.482V6.51799H11.482C11.7681 6.51799 12 6.2861 12 6C12 5.7139 11.7681 5.48201 11.482 5.48201Z" fill="#F1F1F1"/>
</svg>
