<svg width="13" height="12" viewBox="0 0 13 12" fill="none" xmlns="http://www.w3.org/2000/svg">
<path d="M11.982 5.48201H7.01799V0.517986C7.01799 0.231885 6.7861 0 6.5 0C6.2139 0 5.98201 0.231885 5.98201 0.517986V5.48201H1.01799C0.731885 5.48201 0.5 5.7139 0.5 6C0.5 6.2861 0.731885 6.51799 1.01799 6.51799H5.98201V11.482C5.98201 11.7681 6.2139 12 6.5 12C6.7861 12 7.01799 11.7681 7.01799 11.482V6.51799H11.982C12.2681 6.51799 12.5 6.2861 12.5 6C12.5 5.7139 12.2681 5.48201 11.982 5.48201Z" fill="#F1F1F1"/>
</svg>
