<svg width="249" height="230" viewBox="0 0 249 230" fill="none" xmlns="http://www.w3.org/2000/svg">
<g clip-path="url(#clip0_314_19221)">
<path d="M226.744 184.267L206.541 154.257C206.541 154.257 237.138 164.938 233.665 184.267H226.744Z" fill="#E5E5E5"/>
<path d="M17.3191 184.465L16.5521 184.45C16.8488 175.923 17.7586 167.427 19.2747 159.03C22.5913 141.052 28.1062 129.245 35.6662 123.937L36.1066 124.564C18.4463 136.964 17.3281 183.992 17.3191 184.465Z" fill="#E5E5E5"/>
<path d="M26.9064 184.282L26.1394 184.267C26.1559 183.418 26.6353 163.4 34.5158 157.867L34.9562 158.495C27.3936 163.804 26.9101 184.078 26.9064 184.282Z" fill="#E5E5E5"/>
<path d="M40.47 124.634C42.588 124.634 44.3049 122.917 44.3049 120.799C44.3049 118.681 42.588 116.964 40.47 116.964C38.3521 116.964 36.6351 118.681 36.6351 120.799C36.6351 122.917 38.3521 124.634 40.47 124.634Z" fill="#F1F1F1"/>
<path d="M38.571 157.614C40.6889 157.614 42.4058 155.897 42.4058 153.779C42.4058 151.661 40.6889 149.944 38.571 149.944C36.453 149.944 34.7361 151.661 34.7361 153.779C34.7361 155.897 36.453 157.614 38.571 157.614Z" fill="#F1F1F1"/>
<path d="M25.1188 126.933C25.8395 131.536 23.9611 135.654 23.9611 135.654C23.9611 135.654 20.9142 132.308 20.1935 127.704C19.4728 123.101 21.3512 118.983 21.3512 118.983C21.3512 118.983 24.3981 122.33 25.1188 126.933Z" fill="#E5E5E5"/>
<path d="M37.6539 138.113C33.2465 139.624 28.8649 138.492 28.8649 138.492C28.8649 138.492 31.629 134.909 36.0364 133.397C40.4438 131.885 44.8255 133.018 44.8255 133.018C44.8255 133.018 42.0613 136.601 37.6539 138.113Z" fill="#E5E5E5"/>
<path d="M37.7956 167.32C35.8008 167.946 33.6765 168.038 31.6351 167.586C32.9313 165.935 34.6769 164.695 36.6618 164.014C38.6467 163.334 40.7861 163.241 42.8222 163.748C41.4883 165.358 39.7549 166.59 37.7956 167.32Z" fill="#E5E5E5"/>
<path d="M248.5 185.034H0.383487C0.28178 185.034 0.184244 184.993 0.112326 184.921C0.0404086 184.849 0 184.752 0 184.65C0 184.548 0.0404086 184.451 0.112326 184.379C0.184244 184.307 0.28178 184.267 0.383487 184.267H248.5C248.602 184.267 248.699 184.307 248.771 184.379C248.843 184.451 248.883 184.548 248.883 184.65C248.883 184.752 248.843 184.849 248.771 184.921C248.699 184.993 248.602 185.034 248.5 185.034Z" fill="#CBCBCB"/>
<path d="M157.15 202.712L154.013 210.878L121.024 202.662L125.654 190.61L157.15 202.712Z" fill="#FFB7B7"/>
<path d="M165.866 203.67L155.749 230L155.416 229.872C152.699 228.827 150.507 226.746 149.323 224.086C148.14 221.426 148.061 218.404 149.105 215.686L149.106 215.686L155.284 199.604L165.866 203.67Z" fill="#2F2E41"/>
<path d="M107.022 100.471L92.6454 101.817L91.9323 144.592C92.1228 146.688 93.1267 148.627 94.729 149.992C96.3312 151.357 98.4044 152.04 100.504 151.896L109.619 151.268L107.022 100.471Z" fill="#E5E5E5"/>
<path d="M157.704 98.3658L147.868 98.2393L147.285 149.065C149.459 149.138 151.624 148.761 153.646 147.96C155.668 147.159 157.503 145.949 159.037 144.407C160.57 142.865 161.77 141.024 162.561 138.998C163.351 136.972 163.716 134.804 163.632 132.631L157.704 98.3658Z" fill="#E5E5E5"/>
<path d="M100.627 167.12C100.394 168.594 100.056 170.05 99.6155 171.476C99.1191 172.872 98.3528 174.163 97.8989 175.573C96.4522 180.068 98.4578 185.08 101.661 188.549C104.439 191.546 108.024 193.675 111.985 194.679C114.874 195.406 117.879 195.511 120.857 195.612C129.103 195.891 137.561 196.142 145.375 193.492C147.843 192.634 150.228 191.55 152.498 190.256C153.215 189.914 153.846 189.417 154.346 188.8C154.942 187.952 155.018 186.851 155.013 185.815C154.996 182.319 154.287 178.841 154.455 175.349C154.548 173.415 154.91 171.483 154.732 169.555C154.486 167.365 153.568 165.305 152.106 163.657C150.643 162.008 148.707 160.852 146.562 160.346C144.346 159.87 142.047 160.13 139.79 160.347C133.932 160.91 128.05 161.173 122.165 161.135C116.153 161.096 110.177 160.179 104.195 160.083C102.426 160.054 102.461 160.6 101.898 162.312C101.379 163.888 100.955 165.494 100.627 167.12Z" fill="#2F2E41"/>
<path d="M77.1163 164.28C75.4995 163.873 73.8336 163.696 72.1675 163.754C70.4169 163.85 68.7071 164.319 67.1515 165.128C65.596 165.936 64.2305 167.067 63.1457 168.444C62.061 169.822 61.2819 171.414 60.8603 173.116C60.4387 174.818 60.3842 176.59 60.7004 178.314C61.1041 180.182 61.764 181.985 62.6614 183.673C63.9738 186.336 65.5479 188.993 67.9775 190.7C69.3988 191.699 71.0438 192.321 72.6692 192.934L85.4656 197.754C87.3481 198.463 89.2309 199.173 91.1321 199.83C100.683 203.132 110.641 205.111 120.729 205.714C123.801 205.897 126.92 205.948 129.918 205.248C130.629 205.082 131.388 204.835 131.8 204.232C132.044 203.807 132.188 203.332 132.22 202.843L133.008 197.33C133.119 196.554 133.225 195.737 132.941 195.006C132.58 194.08 131.676 193.497 130.814 193.002C122.401 188.17 112.578 185.504 105.497 178.873C103.83 177.312 102.435 174.837 100.41 173.776C98.1128 172.574 95.4079 171.888 93.0339 170.779C87.8439 168.357 82.7412 165.573 77.1163 164.28Z" fill="#2F2E41"/>
<path opacity="0.1" d="M89.8916 171.711C94.4146 173.128 113.511 182.947 116.784 186.376C116.345 186.534 101.459 178.191 101.013 178.057C96.9525 176.839 92.8697 175.612 89.014 173.829C88.2383 173.47 83.9748 171.784 84.1679 170.805C84.3857 169.701 89.0886 171.46 89.8916 171.711Z" fill="black"/>
<path d="M117.189 86.0938L105.011 95.3403C105.011 95.3403 92.1605 95.7423 92.5947 103.957C93.029 112.171 98.1719 151.063 98.1719 151.063L99.2877 164.445L120.454 170.476C131.89 173.735 143.972 173.994 155.537 171.228L153.022 157.803C153.022 157.803 163.207 96.8316 157.071 94.1471C150.936 91.4627 147.101 92.2297 147.101 92.2297L139.41 85.5186L117.189 86.0938Z" fill="#E5E5E5"/>
<path d="M153.236 71.1577C153.236 83.1613 142.137 81.3457 128.446 81.3457C114.754 81.3457 103.655 83.1613 103.655 71.1577C103.655 59.1542 109.077 37.877 128.446 37.877C148.482 37.877 153.236 59.1542 153.236 71.1577Z" fill="#2F2E41"/>
<path d="M141.332 75.2265C147.847 68.7118 147.847 58.1495 141.332 51.6348C134.818 45.1201 124.255 45.1201 117.741 51.6348C111.226 58.1495 111.226 68.7118 117.741 75.2265C124.255 81.7412 134.818 81.7412 141.332 75.2265Z" fill="#FFB7B7"/>
<path d="M109.088 63.0078H115.686L118.597 54.8574L119.179 63.0078H122.333L124.031 58.2534L124.37 63.0078H147.803C147.803 58.3243 145.942 53.8326 142.631 50.5209C139.319 47.2092 134.827 45.3486 130.144 45.3486H126.748C122.064 45.3486 117.572 47.2092 114.261 50.5209C110.949 53.8326 109.088 58.3243 109.088 63.0078Z" fill="#2F2E41"/>
<path d="M145.183 88.0107H111.82V128.277H145.183V88.0107Z" fill="#233EFF"/>
<path d="M113.658 202.329L116.796 210.495L149.785 202.279L145.155 190.228L113.658 202.329Z" fill="#FFB7B7"/>
<path d="M115.524 199.222L121.703 215.303L121.703 215.304C122.747 218.022 122.669 221.043 121.485 223.703C120.302 226.363 118.11 228.445 115.392 229.489L115.059 229.617L104.943 203.287L115.524 199.222Z" fill="#2F2E41"/>
<path d="M179.6 161.154C182.251 160.489 184.998 160.301 187.714 160.599C189.883 160.838 192.118 161.442 193.701 162.943C195.629 164.77 196.248 167.596 196.3 170.252C196.384 175.541 194.63 180.695 191.337 184.835C190.532 185.882 189.576 186.802 188.499 187.566C187.338 188.293 186.1 188.889 184.807 189.345L156.15 200.648C148.611 203.622 141.046 206.604 133.182 208.565C132.754 208.771 132.262 208.799 131.814 208.643C131.366 208.486 130.998 208.158 130.792 207.731C130.785 207.718 130.779 207.705 130.773 207.691C128.262 204.105 126.156 200.252 124.492 196.202C124.414 196.106 124.359 195.992 124.334 195.87C124.308 195.749 124.312 195.623 124.346 195.503C124.38 195.383 124.441 195.273 124.527 195.182C124.612 195.092 124.717 195.023 124.835 194.981L145.104 183.335C146.556 182.501 148.024 181.655 149.23 180.493C150.106 179.644 150.823 178.645 151.348 177.544C151.768 176.666 151.807 174.595 152.344 173.947C152.869 173.312 154.667 173.261 155.497 173.011C156.668 172.652 157.814 172.219 158.929 171.714C163.464 169.685 167.501 166.738 171.848 164.363C174.285 162.969 176.891 161.891 179.6 161.154Z" fill="#2F2E41"/>
<path opacity="0.1" d="M168.109 169.851C164.627 172.467 160.118 174.871 156.667 177.556C155.489 178.472 135.852 189.511 135.575 190.978C138.795 191.52 159.306 177.171 162.241 175.739C165.175 174.307 167.777 172.288 170.355 170.284C171.012 169.773 173.796 168.238 171.91 167.667C170.848 167.345 168.894 169.329 168.109 169.851Z" fill="black"/>
<path d="M230.701 68.9185C237.319 68.9185 242.684 63.5535 242.684 56.9353C242.684 50.3172 237.319 44.9521 230.701 44.9521C224.083 44.9521 218.718 50.3172 218.718 56.9353C218.718 63.5535 224.083 68.9185 230.701 68.9185Z" fill="#F1F1F1"/>
<path d="M208.523 71.0651C213.166 71.0651 216.929 67.3016 216.929 62.659C216.929 58.0165 213.166 54.2529 208.523 54.2529C203.881 54.2529 200.117 58.0165 200.117 62.659C200.117 67.3016 203.881 71.0651 208.523 71.0651Z" fill="#F1F1F1"/>
<path d="M54.5369 65.5809C58.2594 65.5809 61.2771 62.5633 61.2771 58.8408C61.2771 55.1183 58.2594 52.1006 54.5369 52.1006C50.8144 52.1006 47.7968 55.1183 47.7968 58.8408C47.7968 62.5633 50.8144 65.5809 54.5369 65.5809Z" fill="#F1F1F1"/>
<path d="M65.6341 70.1136C68.2454 70.1136 70.3623 67.9967 70.3623 65.3854C70.3623 62.7741 68.2454 60.6572 65.6341 60.6572C63.0228 60.6572 60.9059 62.7741 60.9059 65.3854C60.9059 67.9967 63.0228 70.1136 65.6341 70.1136Z" fill="#F1F1F1"/>
<path d="M131.02 19.3045C133.865 19.3045 136.172 16.9978 136.172 14.1523C136.172 11.3067 133.865 9 131.02 9C128.174 9 125.868 11.3067 125.868 14.1523C125.868 16.9978 128.174 19.3045 131.02 19.3045Z" fill="#F1F1F1"/>
<path opacity="0.17" d="M100.315 113.704L100.776 110.149C100.776 110.149 117.956 111.404 115.271 115.622C112.587 119.84 106.067 120.224 106.067 120.224L100.315 113.704Z" fill="#2F2E41"/>
<path d="M113.283 98.2474C114.267 98.3558 115.215 98.6806 116.059 99.1987C116.903 99.7167 117.621 100.415 118.163 101.244C118.657 102 118.992 102.848 119.15 103.737C119.308 104.626 119.284 105.538 119.081 106.418C118.877 107.298 118.498 108.127 117.966 108.857C117.433 109.586 116.759 110.201 115.984 110.663C115.699 110.831 115.402 110.977 115.096 111.1L104.536 143.4C104.23 144.037 103.801 144.608 103.274 145.079C102.746 145.55 102.131 145.912 101.464 146.145C100.796 146.377 100.089 146.475 99.3832 146.434C98.6775 146.392 97.9869 146.211 97.3512 145.902C96.7156 145.592 96.1474 145.16 95.6792 144.63C95.2111 144.101 94.8523 143.483 94.6235 142.815C94.3947 142.146 94.3003 141.438 94.3459 140.733C94.3914 140.027 94.576 139.338 94.8889 138.704L106.119 106.762C105.813 105.705 105.772 104.589 106 103.513C106.229 102.437 106.719 101.433 107.427 100.591C108.135 99.7493 109.04 99.095 110.062 98.6862C111.083 98.2774 112.19 98.1267 113.283 98.2474Z" fill="#FFB7B7"/>
<path d="M100.473 110.453C100.473 110.453 106.523 120.791 115.271 115.623L106.794 148.065H99.6509L92.262 146.685L94.3308 133.281L100.473 110.453Z" fill="#E5E5E5"/>
<path d="M143.676 117.518L138.664 110.637C138.664 110.637 141.073 103.499 150.414 106.109C150.414 106.109 156.359 119.415 143.676 117.518Z" fill="#E5E5E5"/>
<path opacity="0.17" d="M143.676 117.518L138.664 110.637C138.664 110.637 141.073 103.499 150.414 106.109C150.414 106.109 156.359 119.415 143.676 117.518Z" fill="#2F2E41"/>
<path d="M145.004 93.4758C146.45 94.1481 147.606 95.317 148.263 96.7701C148.92 98.2232 149.034 99.8638 148.583 101.394L159.813 133.335C160.126 133.969 160.311 134.659 160.356 135.364C160.402 136.07 160.308 136.777 160.079 137.446C159.85 138.115 159.491 138.732 159.023 139.262C158.555 139.792 157.987 140.224 157.351 140.534C156.715 140.843 156.025 141.024 155.319 141.066C154.613 141.107 153.906 141.009 153.238 140.776C152.571 140.544 151.956 140.182 151.428 139.711C150.901 139.24 150.472 138.669 150.166 138.032L139.607 105.731C139.3 105.609 139.003 105.463 138.718 105.295C137.943 104.832 137.269 104.218 136.736 103.488C136.204 102.759 135.825 101.929 135.621 101.05C135.418 100.17 135.394 99.2579 135.552 98.3687C135.71 97.4796 136.045 96.6314 136.539 95.8753C137.081 95.0467 137.8 94.3483 138.643 93.8303C139.487 93.3122 140.435 92.9874 141.419 92.8791C142.646 92.74 143.888 92.9467 145.004 93.4758Z" fill="#FFB7B7"/>
<path d="M138.664 110.637C138.664 110.637 146.934 115.655 150.414 106.109L162.068 136.794L158.605 142.85L158.105 142.892C156.039 143.064 153.962 142.732 152.053 141.925C150.143 141.117 148.459 139.859 147.143 138.257C144.46 134.989 142.633 131.104 141.828 126.954L138.664 110.637Z" fill="#E5E5E5"/>
</g>
<defs>
<clipPath id="clip0_314_19221">
<rect width="248.883" height="230" fill="white"/>
</clipPath>
</defs>
</svg>
