<svg  viewBox="0 0 69 59" fill="none" xmlns="http://www.w3.org/2000/svg">
<path d="M36.1377 14.4386L36.2283 14.465L36.2322 14.4607C36.6681 14.5386 37.1037 14.2841 37.2333 13.8557C38.4041 10.0046 42.0942 7.31115 46.2087 7.31115C46.6926 7.31115 47.0905 6.92617 47.0905 6.44483C47.0905 5.96348 46.6926 5.57852 46.2087 5.57852C41.1567 5.57852 36.9084 8.87146 35.5439 13.3602C35.4033 13.8218 35.6729 14.3029 36.1377 14.4386Z" fill="#233EFF" stroke="#F1F1F1" stroke-width="0.3"/>
<path d="M56.4524 41.5439H52.0621C51.6581 41.5439 51.3303 41.2231 51.3303 40.8276C51.3303 40.4321 51.658 40.1113 52.0621 40.1113H56.4524C62.5043 40.1113 67.4283 35.291 67.4283 29.3667C67.4283 23.4424 62.5043 18.6221 56.4524 18.6221H56.3468C56.1346 18.6221 55.9329 18.532 55.7938 18.375C55.6548 18.2179 55.5921 18.0096 55.6224 17.804C55.6877 17.3578 55.7207 16.9096 55.7207 16.4732C55.7207 11.3388 51.453 7.16113 46.2081 7.16113C44.1676 7.16113 42.2217 7.78534 40.5805 8.96672C40.2199 9.22613 39.7077 9.11101 39.4991 8.72266C34.8511 0.058441 22.7109 -1.10508 16.4169 6.43204C13.7654 9.60731 12.7236 13.7378 13.5584 17.7636C13.6504 18.2082 13.3029 18.6226 12.8413 18.6226H12.5481C6.49624 18.6226 1.57217 23.4429 1.57217 29.3672C1.57217 35.2916 6.49624 40.1119 12.5481 40.1119H16.9385C17.3425 40.1119 17.6702 40.4327 17.6702 40.8282C17.6702 41.2237 17.3425 41.5445 16.9385 41.5445H12.5481C5.68914 41.5445 0.108643 36.0816 0.108643 29.3672C0.108643 22.8411 5.38019 17.4974 11.9737 17.2027C11.3544 13.0261 12.5387 8.81319 15.2837 5.52541C22.0224 -2.54481 34.9366 -1.64024 40.3958 7.35863C42.1373 6.28979 44.1302 5.72908 46.2079 5.72908C52.5624 5.72908 57.5978 11.0237 57.1572 17.2094C63.69 17.5681 68.8915 22.8836 68.8915 29.3667C68.8915 36.0816 63.311 41.544 56.4521 41.544L56.4524 41.5439Z" fill="#233EFF"/>
<path d="M15.9586 40.423C15.9586 50.3834 24.2353 58.4809 34.4021 58.4809C44.569 58.4809 52.8456 50.3832 52.8456 40.423C52.8456 30.4627 44.569 22.3651 34.4021 22.3651C24.2352 22.3651 15.9586 30.4628 15.9586 40.423ZM17.7224 40.423C17.7224 31.4247 25.2021 24.0981 34.4021 24.0981C43.602 24.0981 51.0818 31.4246 51.0818 40.423C51.0818 49.4213 43.602 56.748 34.4021 56.748C25.2022 56.748 17.7224 49.4215 17.7224 40.423Z" fill="#233EFF" stroke="#F1F1F1" stroke-width="0.3"/>
<path d="M34.0509 47.6321C34.0509 48.0075 34.361 48.3065 34.7366 48.3065C35.1122 48.3065 35.4223 48.0079 35.4223 47.6321V33.9971C35.4223 33.6217 35.1122 33.3227 34.7366 33.3227C34.361 33.3227 34.0509 33.6217 34.0509 33.9971V47.6321Z" fill="#233EFF" stroke="#233EFF" stroke-width="0.3"/>
<path d="M38.5384 38.672C38.6723 38.8031 38.848 38.8683 39.0221 38.8684L30.9347 38.6719L34.7365 34.9502L38.5384 38.672ZM35.2202 33.5206C34.9527 33.2587 34.52 33.2585 34.2527 33.5206L39.0222 38.8684C39.196 38.8683 39.3718 38.8036 39.506 38.6719C39.7753 38.4081 39.7752 37.9796 39.5059 37.7159L35.2202 33.5206Z" fill="#233EFF" stroke="#233EFF" stroke-width="0.3"/>
</svg>
